<svg preserveAspectRatio="none" width="100%" height="100%" overflow="visible" style="display: block;" viewBox="0 0 24 24" fill="none" xmlns="http://www.w3.org/2000/svg">
<g id="Group">
<g id="Vector">
</g>
<path id="Vector_2" d="M15.889 6.697C16.0789 6.52154 16.3294 6.42638 16.5879 6.43145C16.8464 6.43652 17.0929 6.54142 17.2758 6.72419C17.4587 6.90696 17.5638 7.15341 17.5691 7.41193C17.5743 7.67044 17.4793 7.92095 17.304 8.111L13.414 12L17.304 15.89C17.4862 16.0786 17.587 16.3312 17.5847 16.5934C17.5824 16.8556 17.4772 17.1064 17.2918 17.2918C17.1064 17.4772 16.8556 17.5824 16.5934 17.5847C16.3312 17.587 16.0786 17.4862 15.89 17.304L12 13.414L8.111 17.304C8.01875 17.3995 7.90841 17.4757 7.7864 17.5281C7.6644 17.5805 7.53318 17.6081 7.4004 17.6093C7.26762 17.6104 7.13594 17.5851 7.01305 17.5348C6.89015 17.4845 6.7785 17.4103 6.68461 17.3164C6.59071 17.2225 6.51646 17.1109 6.46618 16.988C6.4159 16.8651 6.3906 16.7334 6.39175 16.6006C6.3929 16.4678 6.42049 16.3366 6.4729 16.2146C6.52531 16.0926 6.60149 15.9822 6.697 15.89L10.586 12L6.697 8.11C6.51484 7.9214 6.41405 7.6688 6.41633 7.4066C6.4186 7.1444 6.52377 6.89359 6.70918 6.70818C6.89459 6.52277 7.1454 6.4176 7.4076 6.41533C7.6698 6.41305 7.9224 6.51384 8.111 6.696L12 10.586L15.889 6.697Z" fill="var(--fill-0, black)" fill-opacity="0.7"/>
</g>
</svg>
