<svg preserveAspectRatio="none" width="100%" height="100%" overflow="visible" style="display: block;" viewBox="0 0 29 29" fill="none" xmlns="http://www.w3.org/2000/svg">
<g id="Frame 30">
<rect x="0.5" y="0.5" width="28" height="28" rx="14" fill="var(--fill-0, #F9E1A7)"/>
<rect x="0.5" y="0.5" width="28" height="28" rx="14" stroke="var(--stroke-0, #FFDE8E)"/>
<path id="Vector" d="M13.5833 17.24C13.5833 18.0155 13.8493 18.7296 14.2942 19.2961C14.2134 19.376 14.1337 19.4548 14.0546 19.5326C13.9358 19.6495 13.8208 19.7627 13.711 19.8722C13.6814 19.9018 13.6424 19.9166 13.6033 19.9166C13.5643 19.9166 13.5257 19.9018 13.4957 19.8722C13.3859 19.7632 13.2714 19.65 13.1526 19.5331C12.3974 18.7894 11.4569 17.8637 10.7176 16.8174C9.84205 15.5791 9.41616 14.4206 9.41616 13.2749C9.41616 10.9639 11.2944 9.08338 13.6033 9.08338C15.9123 9.08338 17.7905 10.9639 17.7905 13.2749C17.7905 13.5177 17.7705 13.7637 17.7309 14.0112C17.4686 13.9446 17.1936 13.9086 16.9108 13.9086C16.1608 13.9086 15.4684 14.1583 14.9116 14.5788C15.2446 14.244 15.451 13.7832 15.451 13.2749C15.451 12.2561 14.6224 11.4267 13.6033 11.4267C12.5847 11.4267 11.7567 12.2556 11.7567 13.2749C11.7567 14.2937 12.5852 15.1236 13.6033 15.1236C13.9938 15.1236 14.3559 15.0014 14.6546 14.7935C13.9959 15.4024 13.5833 16.2737 13.5833 17.24ZM19.5838 17.2405C19.5838 18.7163 18.3848 19.9166 16.9108 19.9166C15.4368 19.9166 14.2377 18.7164 14.2377 17.2405C14.2377 15.7648 15.4368 14.5644 16.9108 14.5644C18.3848 14.5644 19.5838 15.7647 19.5838 17.2405ZM17.2375 18.2339C17.2375 18.053 17.0913 17.9065 16.9108 17.9065C16.7303 17.9065 16.5841 18.053 16.5841 18.2339V18.2424C16.5841 18.4233 16.7303 18.5698 16.9108 18.5698C17.0913 18.5698 17.2375 18.4233 17.2375 18.2424V18.2339ZM17.846 17.2971C17.5963 17.0469 17.2639 16.9094 16.9108 16.9094C16.5577 16.9094 16.2247 17.0469 15.9745 17.2971C15.8468 17.4251 15.8468 17.6325 15.974 17.7605C16.1017 17.8885 16.3086 17.8885 16.4363 17.761C16.5625 17.6346 16.7308 17.5648 16.9103 17.5648C17.0897 17.5648 17.257 17.6346 17.3836 17.761C17.4475 17.825 17.5309 17.8568 17.6148 17.8568C17.6987 17.8568 17.7821 17.8245 17.846 17.7605C17.9737 17.6325 17.9731 17.4251 17.8454 17.2971L17.846 17.2971ZM18.5505 16.591C18.1119 16.1524 17.5293 15.9112 16.9102 15.9112C16.2911 15.9112 15.7085 16.1524 15.2699 16.591C15.1422 16.7184 15.1416 16.9263 15.2694 17.0543C15.3332 17.1183 15.4171 17.1506 15.501 17.1506C15.5849 17.1506 15.6678 17.1189 15.7317 17.0549C16.0467 16.7401 16.4652 16.5666 16.9101 16.5666C17.355 16.5666 17.7736 16.7401 18.0886 17.0549C18.2163 17.1823 18.4232 17.1823 18.5509 17.0543C18.6781 16.9263 18.6782 16.719 18.5505 16.591Z" fill="var(--fill-0, #E8B931)"/>
</g>
</svg>
